<?xml version="1.0" encoding="utf-8"?>
<!-- Generator: Adobe Illustrator 21.0.2, SVG Export Plug-In . SVG Version: 6.00 Build 0)  -->
<svg version="1.1" id="Layer_1" xmlns="http://www.w3.org/2000/svg" xmlns:xlink="http://www.w3.org/1999/xlink" x="0px" y="0px"
	 viewBox="0 0 1400 146.7" style="enable-background:new 0 0 1400 146.7;" xml:space="preserve">
<style type="text/css">
	.st0{opacity:0.21;fill:#FFFFFF;enable-background:new    ;}
	.st1{fill:#F4F4F4;}
</style>
<path class="st0" d="M1400,92.8v53.9H0V50c0,0,101.8,51.3,218.2,51.3S425.5,0,573.5,0s251.3,130.9,355.3,130.9
	s179.7-78.3,288.5-78.3C1326.1,52.6,1400,92.8,1400,92.8z"/>
<path class="st1" d="M0,83.7c0,0,41.3-25,123.5-25s156.6,67.8,273.7,67.8s141.6-63.2,241.4-63.2s135.5,45.4,208.6,45.4
	s108.6-40.8,187.5-40.8s129.6,55.9,227.6,55.9S1400,69.9,1400,69.9v76.8H0V83.7z"/>
</svg>
